<svg version="1.1" preserveAspectRatio="none" xmlns="http://www.w3.org/2000/svg" width="500" height="500" viewBox="0 0 500 500"><rect width="100%" height="100%" fill="#1C1C1C" fill-opacity="1"/><svg viewBox="64.0608 37.0503 367.1934 300.5497" width="333" height="272.5622249746319" x="83.5px" y="113.7189px" xmlns="http://www.w3.org/2000/svg" xmlns:xlink="http://www.w3.org/1999/xlink" preserveAspectRatio="none"><defs></defs><style>.companyName {fill:#EDEDED;fill-opacity:1;}.icon1 {fill:#EDEDED;fill-opacity:1;}.icon2 {fill:#F35F40;fill-opacity:1;}.icon3 {fill:#B2B2B1;fill-opacity:1;}.icon3-str {stroke:#B2B2B1;stroke-opacity:1;}.text {fill:#EDEDED;fill-opacity:1;}</style><g opacity="1" transform="rotate(0 82.1934 37.0503)">
<svg width="330.9282" height="197.7497" x="82.1934" y="37.0503" version="1.1" preserveAspectRatio="none" viewBox="4.999998092651367 22.999996185302734 90.19999694824219 53.89999771118164">
  <g transform="matrix(1 0 0 1 0 0)" class="icon1"><g><path d="M60.1,23.1c-6.3,0.5-14,0.4-22.5,2.2c0,0-5.5,1.7-10.6,1.7c-2,0-3.9-0.3-5.3-1c0,0,5.5,7.5,12.2,9.9c0,0-3,2.2-8.8,2.2   c-4.8,0-11.5-1.5-20.1-7.2c0,0,4.1,24.2,23.9,30.8c0,0-7.3,1.3-14.4,9.3c0,0,3.4-1.5,10-1.5c4.2,0,9.8,0.6,16.5,2.7   c7.8,2.4,16.3,4.7,24.5,4.7c0.3,0,0.7,0,1,0c0.6,0,1.2,0,1.8,0c0,0-0.6,0-1.5-0.1c0.4,0,0.7,0,1.1,0c15,0,27.3-12,27.3-26.8   s-12.2-26.8-27.3-27L60.1,23.1z M42.7,50c0-13.6,11.2-24.6,25-24.6s25,11,25,24.6s-11.2,24.6-25,24.6S42.7,63.5,42.7,50z"></path><path d="M81.3,49.8c0-7.3-6-13.2-13.4-13.1c-7.4,0-13.4,5.9-13.4,13.2c0,7.3,6,13.2,13.4,13.1C75.3,63,81.3,57.1,81.3,49.8z    M73.4,59c-1.2,0-2.2-1-2.2-2.2c0-1.2,1-2.2,2.2-2.2s2.2,1,2.2,2.2C75.6,58,74.7,59,73.4,59z M75.3,42.7c1.2,0,2.2,1,2.2,2.2   c0,1.2-1,2.2-2.2,2.2c-1.2,0-2.2-1-2.2-2.2C73.1,43.7,74,42.7,75.3,42.7z M62.7,40.8c1.2,0,2.2,1,2.2,2.2c0,1.2-1,2.2-2.2,2.2   c-1.2,0-2.2-1-2.2-2.2C60.4,41.8,61.4,40.8,62.7,40.8z M60.8,57.1c-1.2,0-2.2-1-2.2-2.2c0-1.2,1-2.2,2.2-2.2c1.2,0,2.2,1,2.2,2.2   C63,56.1,62,57.1,60.8,57.1z M63,49.8c0-2.6,2.2-4.8,4.9-4.8c2.7,0,4.9,2.1,4.9,4.8c0,2.6-2.2,4.8-4.9,4.8   C65.2,54.6,63,52.5,63,49.8z"></path></g></g>
</svg>
</g><g opacity="1" transform="rotate(0 64.0608 316.8)">
<svg width="367.1934" height="20.8" x="64.0608" y="316.8" version="1.1" preserveAspectRatio="none" viewBox="4.56 -29.88 530.9200000000001 30.08">
  <g transform="matrix(1 0 0 1 0 0)" class="text"><path id="id-6izo4zJp25" d="M4.56 0L4.56-28L15.96-28Q20.40-28 23.80-26.22Q27.20-24.44 29.08-21.26Q30.96-18.08 30.96-14L30.96-14Q30.96-9.92 29.08-6.74Q27.20-3.56 23.80-1.78Q20.40 0 15.96 0L15.96 0L4.56 0ZM7.52-2.56L15.80-2.56Q19.48-2.56 22.24-4.02Q25-5.48 26.52-8.06Q28.04-10.64 28.04-14L28.04-14Q28.04-17.36 26.52-19.94Q25-22.52 22.24-23.98Q19.48-25.44 15.80-25.44L15.80-25.44L7.52-25.44L7.52-2.56Z M48.80 0.20Q45.76 0.20 43.32-1.18Q40.88-2.56 39.48-5Q38.08-7.44 38.08-10.52L38.08-10.52Q38.08-13.60 39.48-16.04Q40.88-18.48 43.32-19.84Q45.76-21.20 48.80-21.20L48.80-21.20Q51.84-21.20 54.28-19.84Q56.72-18.48 58.10-16.04Q59.48-13.60 59.48-10.52L59.48-10.52Q59.48-7.44 58.10-5Q56.72-2.56 54.28-1.18Q51.84 0.20 48.80 0.20L48.80 0.20ZM48.80-2.32Q51.04-2.32 52.82-3.34Q54.60-4.36 55.60-6.24Q56.60-8.12 56.60-10.52L56.60-10.52Q56.60-12.92 55.60-14.80Q54.60-16.68 52.82-17.70Q51.04-18.72 48.80-18.72L48.80-18.72Q46.56-18.72 44.78-17.70Q43-16.68 41.98-14.80Q40.96-12.92 40.96-10.52L40.96-10.52Q40.96-8.12 41.98-6.24Q43-4.36 44.78-3.34Q46.56-2.32 48.80-2.32L48.80-2.32Z M79.20-21.20Q83.16-21.20 85.50-18.90Q87.84-16.60 87.84-12.20L87.84-12.20L87.84 0L85.00 0L85.00-11.92Q85.00-15.20 83.36-16.92Q81.72-18.64 78.68-18.64L78.68-18.64Q75.28-18.64 73.30-16.62Q71.32-14.60 71.32-11.04L71.32-11.04L71.32 0L68.48 0L68.48-21.04L71.20-21.04L71.20-17.16Q72.36-19.08 74.42-20.14Q76.48-21.20 79.20-21.20L79.20-21.20Z M98.76-29.88Q99.68-29.88 100.28-29.26Q100.88-28.64 100.88-27.72L100.88-27.72Q100.88-27.24 100.74-26.70Q100.60-26.16 100.36-25.44L100.36-25.44L98.64-19.92L96.72-19.92L98.12-25.68Q97.44-25.88 97.04-26.42Q96.64-26.96 96.64-27.72L96.64-27.72Q96.64-28.68 97.24-29.28Q97.84-29.88 98.76-29.88L98.76-29.88Z M120.20-3.32L121.20-1.28Q120.40-0.56 119.22-0.18Q118.04 0.20 116.76 0.20L116.76 0.20Q113.80 0.20 112.20-1.40Q110.60-3 110.60-5.92L110.60-5.92L110.60-18.64L106.84-18.64L106.84-21.04L110.60-21.04L110.60-25.64L113.44-25.64L113.44-21.04L119.84-21.04L119.84-18.64L113.44-18.64L113.44-6.08Q113.44-4.20 114.38-3.22Q115.32-2.24 117.08-2.24L117.08-2.24Q117.96-2.24 118.78-2.52Q119.60-2.80 120.20-3.32L120.20-3.32Z M159.60-29.68L162.44-29.68L162.44 0L159.72 0L159.72-4.16Q158.44-2.04 156.34-0.92Q154.24 0.20 151.60 0.20L151.60 0.20Q148.64 0.20 146.24-1.16Q143.84-2.52 142.48-4.96Q141.12-7.40 141.12-10.52L141.12-10.52Q141.12-13.64 142.48-16.08Q143.84-18.52 146.24-19.86Q148.64-21.20 151.60-21.20L151.60-21.20Q154.16-21.20 156.22-20.14Q158.28-19.08 159.60-17.04L159.60-17.04L159.60-29.68ZM151.84-2.32Q154.04-2.32 155.82-3.34Q157.60-4.36 158.62-6.24Q159.64-8.12 159.64-10.52L159.64-10.52Q159.64-12.92 158.62-14.80Q157.60-16.68 155.82-17.70Q154.04-18.72 151.84-18.72L151.84-18.72Q149.60-18.72 147.82-17.70Q146.04-16.68 145.02-14.80Q144.00-12.92 144.00-10.52L144.00-10.52Q144.00-8.12 145.02-6.24Q146.04-4.36 147.82-3.34Q149.60-2.32 151.84-2.32L151.84-2.32Z M176.28-16.92Q177.28-19.04 179.26-20.12Q181.24-21.20 184.16-21.20L184.16-21.20L184.16-18.44L183.48-18.48Q180.16-18.48 178.28-16.44Q176.40-14.40 176.40-10.72L176.40-10.72L176.40 0L173.56 0L173.56-21.04L176.28-21.04L176.28-16.92Z M210.64-10.52L210.60-9.64L193-9.64Q193.24-6.36 195.52-4.34Q197.80-2.32 201.28-2.32L201.28-2.32Q203.24-2.32 204.88-3.02Q206.52-3.72 207.72-5.08L207.72-5.08L209.32-3.24Q207.92-1.56 205.82-0.68Q203.72 0.20 201.20 0.20L201.20 0.20Q197.96 0.20 195.46-1.18Q192.96-2.56 191.56-5Q190.16-7.44 190.16-10.52L190.16-10.52Q190.16-13.60 191.50-16.04Q192.84-18.48 195.18-19.84Q197.52-21.20 200.44-21.20L200.44-21.20Q203.36-21.20 205.68-19.84Q208-18.48 209.32-16.06Q210.64-13.64 210.64-10.52L210.64-10.52ZM200.44-18.76Q197.40-18.76 195.34-16.82Q193.28-14.88 193-11.76L193-11.76L207.92-11.76Q207.64-14.88 205.58-16.82Q203.52-18.76 200.44-18.76L200.44-18.76Z M226.40-21.20Q230.52-21.20 232.72-19.14Q234.92-17.08 234.92-13.04L234.92-13.04L234.92 0L232.20 0L232.20-3.28Q231.24-1.64 229.38-0.72Q227.52 0.20 224.96 0.20L224.96 0.20Q221.44 0.20 219.36-1.48Q217.28-3.16 217.28-5.92L217.28-5.92Q217.28-8.60 219.22-10.24Q221.16-11.88 225.40-11.88L225.40-11.88L232.08-11.88L232.08-13.16Q232.08-15.88 230.56-17.30Q229.04-18.72 226.12-18.72L226.12-18.72Q224.12-18.72 222.28-18.06Q220.44-17.40 219.12-16.24L219.12-16.24L217.84-18.36Q219.44-19.72 221.68-20.46Q223.92-21.20 226.40-21.20L226.40-21.20ZM225.40-2.04Q227.80-2.04 229.52-3.14Q231.24-4.24 232.08-6.32L232.08-6.32L232.08-9.76L225.48-9.76Q220.08-9.76 220.08-6L220.08-6Q220.08-4.16 221.48-3.10Q222.88-2.04 225.40-2.04L225.40-2.04Z M272.08-21.20Q276.04-21.20 278.30-18.92Q280.56-16.64 280.56-12.20L280.56-12.20L280.56 0L277.72 0L277.72-11.92Q277.72-15.20 276.14-16.92Q274.56-18.64 271.68-18.64L271.68-18.64Q268.40-18.64 266.52-16.62Q264.64-14.60 264.64-11.04L264.64-11.04L264.64 0L261.80 0L261.80-11.92Q261.80-15.20 260.22-16.92Q258.64-18.64 255.72-18.64L255.72-18.64Q252.48-18.64 250.58-16.62Q248.68-14.60 248.68-11.04L248.68-11.04L248.68 0L245.84 0L245.84-21.04L248.56-21.04L248.56-17.20Q249.68-19.12 251.68-20.16Q253.68-21.20 256.28-21.20L256.28-21.20Q258.92-21.20 260.86-20.08Q262.80-18.96 263.76-16.76L263.76-16.76Q264.92-18.84 267.10-20.02Q269.28-21.20 272.08-21.20L272.08-21.20Z M305.16 0L305.16-21.04L308.00-21.04L308.00 0L305.16 0ZM306.60-25.64Q305.72-25.64 305.12-26.24Q304.52-26.84 304.52-27.68L304.52-27.68Q304.52-28.48 305.12-29.08Q305.72-29.68 306.60-29.68L306.60-29.68Q307.48-29.68 308.08-29.10Q308.68-28.52 308.68-27.72L308.68-27.72Q308.68-26.84 308.08-26.24Q307.48-25.64 306.60-25.64L306.60-25.64Z M329.20-3.32L330.20-1.28Q329.40-0.56 328.22-0.18Q327.04 0.20 325.76 0.20L325.76 0.20Q322.80 0.20 321.20-1.40Q319.60-3 319.60-5.92L319.60-5.92L319.60-18.64L315.84-18.64L315.84-21.04L319.60-21.04L319.60-25.64L322.44-25.64L322.44-21.04L328.84-21.04L328.84-18.64L322.44-18.64L322.44-6.08Q322.44-4.20 323.38-3.22Q324.32-2.24 326.08-2.24L326.08-2.24Q326.96-2.24 327.78-2.52Q328.60-2.80 329.20-3.32L329.20-3.32Z M339.24 0.20Q338.36 0.20 337.74-0.44Q337.12-1.08 337.12-2L337.12-2Q337.12-2.92 337.74-3.54Q338.36-4.16 339.24-4.16L339.24-4.16Q340.12-4.16 340.76-3.54Q341.40-2.92 341.40-2L341.40-2Q341.40-1.08 340.76-0.44Q340.12 0.20 339.24 0.20L339.24 0.20Z M364.92 0L364.92-28L376.32-28Q380.76-28 384.16-26.22Q387.56-24.44 389.44-21.26Q391.32-18.08 391.32-14L391.32-14Q391.32-9.92 389.44-6.74Q387.56-3.56 384.16-1.78Q380.76 0 376.32 0L376.32 0L364.92 0ZM367.88-2.56L376.16-2.56Q379.84-2.56 382.60-4.02Q385.36-5.48 386.88-8.06Q388.40-10.64 388.40-14L388.40-14Q388.40-17.36 386.88-19.94Q385.36-22.52 382.60-23.98Q379.84-25.44 376.16-25.44L376.16-25.44L367.88-25.44L367.88-2.56Z M403.28-16.92Q404.28-19.04 406.26-20.12Q408.24-21.20 411.16-21.20L411.16-21.20L411.16-18.44L410.48-18.48Q407.16-18.48 405.28-16.44Q403.40-14.40 403.40-10.72L403.40-10.72L403.40 0L400.56 0L400.56-21.04L403.28-21.04L403.28-16.92Z M419.48 0L419.48-21.04L422.32-21.04L422.32 0L419.48 0ZM420.92-25.64Q420.04-25.64 419.44-26.24Q418.84-26.84 418.84-27.68L418.84-27.68Q418.84-28.48 419.44-29.08Q420.04-29.68 420.92-29.68L420.92-29.68Q421.80-29.68 422.40-29.10Q423.00-28.52 423.00-27.72L423.00-27.72Q423.00-26.84 422.40-26.24Q421.80-25.64 420.92-25.64L420.92-25.64Z M448.32-21.04L451.12-21.04L441.76 0L438.84 0L429.52-21.04L432.48-21.04L440.36-3.12L448.32-21.04Z M476.08-10.52L476.04-9.64L458.44-9.64Q458.68-6.36 460.96-4.34Q463.24-2.32 466.72-2.32L466.72-2.32Q468.68-2.32 470.32-3.02Q471.96-3.72 473.16-5.08L473.16-5.08L474.76-3.24Q473.36-1.56 471.26-0.68Q469.16 0.20 466.64 0.20L466.64 0.20Q463.40 0.20 460.90-1.18Q458.40-2.56 457.00-5Q455.60-7.44 455.60-10.52L455.60-10.52Q455.60-13.60 456.94-16.04Q458.28-18.48 460.62-19.84Q462.96-21.20 465.88-21.20L465.88-21.20Q468.80-21.20 471.12-19.84Q473.44-18.48 474.76-16.06Q476.08-13.64 476.08-10.52L476.08-10.52ZM465.88-18.76Q462.84-18.76 460.78-16.82Q458.72-14.88 458.44-11.76L458.44-11.76L473.36-11.76Q473.08-14.88 471.02-16.82Q468.96-18.76 465.88-18.76L465.88-18.76Z M498.76 0L498.76-21.04L501.60-21.04L501.60 0L498.76 0ZM500.20-25.64Q499.32-25.64 498.72-26.24Q498.12-26.84 498.12-27.68L498.12-27.68Q498.12-28.48 498.72-29.08Q499.32-29.68 500.20-29.68L500.20-29.68Q501.08-29.68 501.68-29.10Q502.28-28.52 502.28-27.72L502.28-27.72Q502.28-26.84 501.68-26.24Q501.08-25.64 500.20-25.64L500.20-25.64Z M522.80-3.32L523.80-1.28Q523.00-0.56 521.82-0.18Q520.64 0.20 519.36 0.20L519.36 0.20Q516.40 0.20 514.80-1.40Q513.20-3 513.20-5.92L513.20-5.92L513.20-18.64L509.44-18.64L509.44-21.04L513.20-21.04L513.20-25.64L516.04-25.64L516.04-21.04L522.44-21.04L522.44-18.64L516.04-18.64L516.04-6.08Q516.04-4.20 516.98-3.22Q517.92-2.24 519.68-2.24L519.68-2.24Q520.56-2.24 521.38-2.52Q522.20-2.80 522.80-3.32L522.80-3.32Z M532.28-8.40L531.72-28L535.08-28L534.48-8.40L532.28-8.40ZM533.40 0.20Q532.52 0.20 531.90-0.42Q531.28-1.04 531.28-1.88L531.28-1.88Q531.28-2.76 531.88-3.34Q532.48-3.92 533.40-3.92L533.40-3.92Q534.28-3.92 534.88-3.34Q535.48-2.76 535.48-1.88L535.48-1.88Q535.48-1.04 534.88-0.42Q534.28 0.20 533.40 0.20L533.40 0.20Z"/></g>
</svg>
</g><g opacity="1" transform="rotate(0 82.1934 260.8)">
<svg width="330.9282" height="40" x="82.1934" y="260.8" version="1.1" preserveAspectRatio="none" viewBox="1.24 -34.68 289.56 35">
  <g transform="matrix(1 0 0 1 0 0)" class="companyName"><path id="id-D6z1nYkh15" d="M9.52 0.32Q5.76 0.32 3.50-2.04Q1.24-4.40 1.24-8.52L1.24-8.52L1.24-24.36Q1.24-29.48 3.28-32.08Q5.32-34.68 9.68-34.68L9.68-34.68Q13.48-34.68 15.80-32.60Q18.12-30.52 18.12-26.60L18.12-26.60L18.12-20.68L11.28-20.68L11.28-25.76Q11.28-27.24 10.92-27.80Q10.56-28.36 9.68-28.36L9.68-28.36Q8.76-28.36 8.42-27.72Q8.08-27.08 8.08-25.84L8.08-25.84L8.08-8.60Q8.08-7.24 8.48-6.62Q8.88-6 9.68-6L9.68-6Q11.28-6 11.28-8.60L11.28-8.60L11.28-14.80L18.20-14.80L18.20-8.32Q18.20 0.32 9.52 0.32L9.52 0.32Z M30.12 0L23.28 0L23.28-34.36L30.12-34.36L30.12-22.08L33.36-22.08L33.36-34.36L40.20-34.36L40.20 0L33.36 0L33.36-15.60L30.12-15.60L30.12 0Z M54.24 0.32Q50.08 0.32 47.92-2.22Q45.76-4.76 45.76-9.36L45.76-9.36L45.76-25.72Q45.76-30.16 47.92-32.42Q50.08-34.68 54.24-34.68L54.24-34.68Q58.40-34.68 60.56-32.42Q62.72-30.16 62.72-25.72L62.72-25.72L62.72-9.36Q62.72-4.72 60.56-2.20Q58.40 0.32 54.24 0.32L54.24 0.32ZM54.24-6Q55.16-6 55.48-6.80Q55.80-7.60 55.80-9.04L55.80-9.04L55.80-25.84Q55.80-26.96 55.50-27.66Q55.20-28.36 54.28-28.36L54.28-28.36Q52.56-28.36 52.56-25.76L52.56-25.76L52.56-9Q52.56-7.52 52.92-6.76Q53.28-6 54.24-6L54.24-6Z M76.48 0.32Q72.32 0.32 70.16-2.22Q68.00-4.76 68.00-9.36L68.00-9.36L68.00-25.72Q68.00-30.16 70.16-32.42Q72.32-34.68 76.48-34.68L76.48-34.68Q80.64-34.68 82.80-32.42Q84.96-30.16 84.96-25.72L84.96-25.72L84.96-9.36Q84.96-4.72 82.80-2.20Q80.64 0.32 76.48 0.32L76.48 0.32ZM76.48-6Q77.40-6 77.72-6.80Q78.04-7.60 78.04-9.04L78.04-9.04L78.04-25.84Q78.04-26.96 77.74-27.66Q77.44-28.36 76.52-28.36L76.52-28.36Q74.80-28.36 74.80-25.76L74.80-25.76L74.80-9Q74.80-7.52 75.16-6.76Q75.52-6 76.48-6L76.48-6Z M98.68 0.32Q94.00 0.32 91.92-2Q89.84-4.32 89.84-9.48L89.84-9.48L89.84-12.84L96.60-12.84L96.60-8.56Q96.60-6 98.24-6L98.24-6Q99.16-6 99.52-6.54Q99.88-7.08 99.88-8.36L99.88-8.36Q99.88-10.04 99.48-11.14Q99.08-12.24 98.46-12.98Q97.84-13.72 96.24-15.28L96.24-15.28L93.28-18.24Q89.84-21.60 89.84-25.68L89.84-25.68Q89.84-30.08 91.86-32.38Q93.88-34.68 97.76-34.68L97.76-34.68Q102.40-34.68 104.44-32.22Q106.48-29.76 106.48-24.52L106.48-24.52L99.48-24.52L99.44-26.88Q99.44-27.56 99.06-27.96Q98.68-28.36 98.00-28.36L98.00-28.36Q97.20-28.36 96.80-27.92Q96.40-27.48 96.40-26.72L96.40-26.72Q96.40-25.04 98.32-23.24L98.32-23.24L102.32-19.40Q103.72-18.04 104.64-16.82Q105.56-15.60 106.12-13.94Q106.68-12.28 106.68-10L106.68-10Q106.68-4.92 104.82-2.30Q102.96 0.32 98.68 0.32L98.68 0.32Z M125.96 0L111.76 0L111.76-34.36L125.52-34.36L125.52-27.72L118.76-27.72L118.76-21.04L125.24-21.04L125.24-14.56L118.76-14.56L118.76-6.68L125.96-6.68L125.96 0Z M149.92 0L143.20 0L143.20-34.36L150.28-34.36L153.44-17.92L153.44-34.36L160.08-34.36L160.08 0L153.36 0L149.92-17.20L149.92 0Z M186.08 0.32Q182.32 0.32 180.06-2.04Q177.80-4.40 177.80-8.52L177.80-8.52L177.80-24.36Q177.80-29.48 179.84-32.08Q181.88-34.68 186.24-34.68L186.24-34.68Q190.04-34.68 192.36-32.60Q194.68-30.52 194.68-26.60L194.68-26.60L194.68-20.68L187.84-20.68L187.84-25.76Q187.84-27.24 187.48-27.80Q187.12-28.36 186.24-28.36L186.24-28.36Q185.32-28.36 184.98-27.72Q184.64-27.08 184.64-25.84L184.64-25.84L184.64-8.60Q184.64-7.24 185.04-6.62Q185.44-6 186.24-6L186.24-6Q187.84-6 187.84-8.60L187.84-8.60L187.84-14.80L194.76-14.80L194.76-8.32Q194.76 0.32 186.08 0.32L186.08 0.32Z M199.84 0L199.84-34.36L210.40-34.36Q212.92-34.36 214.30-33.22Q215.68-32.08 216.16-30.02Q216.64-27.96 216.64-24.76L216.64-24.76Q216.64-21.84 215.88-20.20Q215.12-18.56 213.24-17.92L213.24-17.92Q214.80-17.60 215.50-16.36Q216.20-15.12 216.20-13L216.20-13L216.12 0L209.40 0L209.40-13.44Q209.40-14.88 208.84-15.28Q208.28-15.68 206.80-15.68L206.80-15.68L206.80 0L199.84 0ZM206.84-21.64L208.48-21.64Q209.92-21.64 209.92-24.76L209.92-24.76Q209.92-26.12 209.80-26.80Q209.68-27.48 209.36-27.74Q209.04-28 208.44-28L208.44-28L206.84-28L206.84-21.64Z M229.68 0.32Q225.44 0.32 223.38-2.08Q221.32-4.48 221.32-9.20L221.32-9.20L221.32-34.36L228.00-34.36L228.00-9.48Q228.00-7.84 228.32-6.92Q228.64-6 229.68-6L229.68-6Q230.72-6 231.04-6.90Q231.36-7.80 231.36-9.48L231.36-9.48L231.36-34.36L238.04-34.36L238.04-9.20Q238.04-4.48 235.98-2.08Q233.92 0.32 229.68 0.32L229.68 0.32Z M249.80 0L243.16 0L243.16-34.36L249.80-34.36L249.80 0Z M263.52 0.32Q258.84 0.32 256.76-2Q254.68-4.32 254.68-9.48L254.68-9.48L254.68-12.84L261.44-12.84L261.44-8.56Q261.44-6 263.08-6L263.08-6Q264.00-6 264.36-6.54Q264.72-7.08 264.72-8.36L264.72-8.36Q264.72-10.04 264.32-11.14Q263.92-12.24 263.30-12.98Q262.68-13.72 261.08-15.28L261.08-15.28L258.12-18.24Q254.68-21.60 254.68-25.68L254.68-25.68Q254.68-30.08 256.70-32.38Q258.72-34.68 262.60-34.68L262.60-34.68Q267.24-34.68 269.28-32.22Q271.32-29.76 271.32-24.52L271.32-24.52L264.32-24.52L264.28-26.88Q264.28-27.56 263.90-27.96Q263.52-28.36 262.84-28.36L262.84-28.36Q262.04-28.36 261.64-27.92Q261.24-27.48 261.24-26.72L261.24-26.72Q261.24-25.04 263.16-23.24L263.16-23.24L267.16-19.40Q268.56-18.04 269.48-16.82Q270.40-15.60 270.96-13.94Q271.52-12.28 271.52-10L271.52-10Q271.52-4.92 269.66-2.30Q267.80 0.32 263.52 0.32L263.52 0.32Z M290.80 0L276.60 0L276.60-34.36L290.36-34.36L290.36-27.72L283.60-27.72L283.60-21.04L290.08-21.04L290.08-14.56L283.60-14.56L283.60-6.68L290.80-6.68L290.80 0Z"/></g>
</svg>
</g></svg></svg>